<?xml version="1.0" encoding="UTF-8" standalone="no" ?>
<!DOCTYPE svg PUBLIC "-//W3C//DTD SVG 1.1//EN" "http://www.w3.org/Graphics/SVG/1.1/DTD/svg11.dtd">
<svg xmlns="http://www.w3.org/2000/svg" xmlns:xlink="http://www.w3.org/1999/xlink" version="1.1" width="500" height="500" viewBox="0 0 500 500" xml:space="preserve">
<desc>Created with Fabric.js 3.6.3</desc>
<defs>
</defs>
<g transform="matrix(2.8566008681388517 0 0 2.8566008681388517 250 239.19205061539634)"  >
<path style="stroke: none; stroke-width: 0; stroke-dasharray: none; stroke-linecap: butt; stroke-dashoffset: 0; stroke-linejoin: miter; stroke-miterlimit: 4; fill: rgb(76,76,76); fill-rule: nonzero; opacity: 1;"  transform=" translate(-256.0045000000001, -255.99899999999997)" d="M 298.122 234.067 c -1.483 0 -2.687 1.207 -2.687 2.687 c 0 1.324 0.962 2.425 2.226 2.644 v 8.405 h -15.069 c -3.04 -4.066 -6.093 -4.73 -8.38 -4.378 c -2.126 -2.736 -5.332 -5.993 -9.424 -7.644 v -13.094 h 6.364 c 0.219 1.159 1.234 2.036 2.454 2.036 c 1.375 0 2.496 -1.12 2.496 -2.497 c 0 -1.375 -1.121 -2.497 -2.496 -2.497 c -1.22 0 -2.235 0.88 -2.454 2.036 h -6.825 c -0.256 0 -0.462 0.207 -0.462 0.461 v 13.216 c -2.035 -0.674 -4.274 -0.938 -6.693 -0.554 v -12.245 c 1.156 -0.217 2.035 -1.233 2.035 -2.452 c 0 -1.376 -1.121 -2.497 -2.496 -2.497 c -1.378 0 -2.497 1.121 -2.497 2.497 c 0 1.219 0.878 2.235 2.036 2.452 v 12.42 c -2.157 0.481 -4.449 1.482 -6.865 3.16 v -20.752 c 0 -0.254 -0.207 -0.461 -0.461 -0.461 h -8.075 c -0.217 -1.156 -1.234 -2.036 -2.453 -2.036 c -1.377 0 -2.497 1.121 -2.497 2.497 c 0 1.377 1.119 2.496 2.497 2.496 c 1.219 0 2.235 -0.879 2.453 -2.036 h 7.614 v 20.038 c -1.022 -0.468 -2.18 -0.815 -3.45 -0.9 c -3.015 -0.203 -5.967 1.118 -8.772 3.922 c -1.302 1.302 -2.161 2.587 -2.58 3.849 c -1.26 0.328 -2.854 0.841 -4.401 1.598 h -9.717 v -7.041 c 1.261 -0.221 2.224 -1.32 2.224 -2.644 c 0 -1.48 -1.206 -2.687 -2.687 -2.687 c -1.481 0 -2.687 1.207 -2.687 2.687 c 0 1.324 0.964 2.425 2.228 2.644 v 7.502 c 0 0.254 0.205 0.46 0.461 0.46 h 8.54 c -1.567 1.019 -2.918 2.346 -3.567 4.07 c -0.389 1.04 -0.5 2.154 -0.339 3.332 h -4.217 c -0.219 -1.262 -1.32 -2.226 -2.644 -2.226 c -1.481 0 -2.686 1.207 -2.686 2.687 c 0 1.481 1.205 2.687 2.686 2.687 c 1.324 0 2.424 -0.963 2.644 -2.226 h 4.395 c 0.335 1.353 1.013 2.787 2.026 4.295 c -0.521 0.949 -0.951 2.052 -1.156 3.297 h -10.881 c -0.255 0 -0.461 0.206 -0.461 0.46 v 8.865 c -1.263 0.219 -2.226 1.32 -2.226 2.645 c 0 1.48 1.204 2.687 2.685 2.687 c 1.482 0 2.687 -1.206 2.687 -2.687 c 0 -1.324 -0.963 -2.425 -2.224 -2.645 v -8.403 h 10.314 c -0.207 3.077 1.018 6.912 5.429 11.322 c 3.614 3.614 7.315 5.445 11.003 5.445 h 0.041 c 2.397 -0.01 4.455 -0.793 6.085 -1.761 v 10.106 h -6.365 c -0.217 -1.155 -1.234 -2.035 -2.453 -2.035 c -1.377 0 -2.497 1.118 -2.497 2.496 c 0 1.376 1.119 2.497 2.497 2.497 c 1.219 0 2.235 -0.88 2.453 -2.035 h 6.827 c 0.254 0 0.46 -0.207 0.46 -0.462 v -11.164 c 0.854 -0.595 1.557 -1.215 2.086 -1.738 c 0.282 0.004 0.569 0.006 0.867 0.006 c 1.158 0 2.424 -0.03 3.742 -0.108 v 12.588 c -1.156 0.218 -2.036 1.233 -2.036 2.453 c 0 1.376 1.121 2.497 2.497 2.497 c 1.377 0 2.496 -1.121 2.496 -2.497 c 0 -1.219 -0.879 -2.235 -2.035 -2.453 v -12.652 c 2.272 -0.176 4.652 -0.506 6.864 -1.093 v 18.919 c 0 0.256 0.207 0.46 0.462 0.46 h 8.074 c 0.219 1.156 1.234 2.036 2.454 2.036 c 1.375 0 2.496 -1.121 2.496 -2.496 c 0 -1.378 -1.121 -2.498 -2.496 -2.498 c -1.22 0 -2.235 0.88 -2.454 2.036 h -7.613 v -18.719 c 2.553 -0.777 4.817 -1.929 6.323 -3.613 c 0.923 -1.031 1.511 -2.21 1.771 -3.523 c 3.232 -0.038 8.099 -0.501 11.482 -2.651 h 9.346 v 7.041 c -0.542 0.092 -1.042 0.347 -1.438 0.744 c -0.507 0.508 -0.787 1.182 -0.787 1.9 c 0 1.48 1.206 2.684 2.688 2.684 c 1.48 0 2.687 -1.203 2.687 -2.684 c 0 -1.324 -0.965 -2.425 -2.227 -2.645 v -7.501 c 0 -0.255 -0.206 -0.462 -0.46 -0.462 h -8.577 c 0.567 -0.502 1.067 -1.069 1.472 -1.717 c 0.99 -1.586 1.323 -3.487 1.002 -5.685 h 5.684 c 0.22 1.261 1.32 2.224 2.645 2.224 c 1.48 0 2.686 -1.205 2.686 -2.686 s -1.205 -2.686 -2.686 -2.686 c -1.324 0 -2.425 0.964 -2.645 2.226 h -5.851 c -0.295 -1.344 -0.817 -2.79 -1.568 -4.333 c -0.605 -1.249 -1.222 -2.327 -1.84 -3.257 h 14.878 c 0.255 0 0.461 -0.207 0.461 -0.46 v -8.867 c 1.261 -0.219 2.225 -1.32 2.225 -2.644 C 300.807 235.273 299.602 234.067 298.122 234.067 z M 284.255 252.385 c 2.049 4.215 2.313 7.598 0.78 10.047 c -2.593 4.151 -9.787 4.797 -13.277 4.855 c 0.07 -0.909 -0.002 -1.875 -0.223 -2.898 c -0.173 -0.799 -0.444 -1.522 -0.813 -2.171 c 5.012 -2.428 6.774 -6.085 6.849 -6.246 c 0.108 -0.228 0.01 -0.503 -0.222 -0.612 c -0.228 -0.107 -0.503 -0.01 -0.611 0.221 c -0.02 0.035 -1.741 3.578 -6.532 5.86 c -0.547 -0.714 -1.237 -1.313 -2.068 -1.788 c -3.69 -2.117 -9.279 -1.388 -12.619 -0.654 c -1.8 -1.349 -3.867 -3.515 -3.942 -6.377 c 0.002 -0.027 0 -0.056 -0.002 -0.083 c -0.015 -0.762 0.122 -1.557 0.406 -2.363 c 0.083 -0.24 -0.042 -0.503 -0.283 -0.586 c -0.241 -0.085 -0.503 0.041 -0.588 0.282 c -0.232 0.659 -0.375 1.315 -0.431 1.957 c -1.573 -0.895 -5.534 -3.445 -5.984 -6.672 c -0.035 -0.253 -0.27 -0.428 -0.52 -0.393 c -0.253 0.035 -0.428 0.267 -0.393 0.52 c 0.562 4.045 5.668 6.954 6.881 7.589 c 0.163 2.796 1.955 4.944 3.708 6.394 c -0.944 0.24 -1.552 0.435 -1.646 0.466 c -0.009 0.003 -0.016 0.006 -0.024 0.009 c -0.118 0.045 -11.897 4.517 -16.526 -0.109 c -0.181 -0.182 -0.472 -0.182 -0.653 0 c -0.179 0.179 -0.179 0.473 0 0.65 c 1.728 1.726 4.26 2.332 6.865 2.373 c 0.446 0.971 1.911 4.535 0.476 6.899 c -0.926 1.526 -2.922 2.299 -5.936 2.299 c -0.254 0 -0.46 0.207 -0.46 0.462 c 0 0.254 0.206 0.461 0.46 0.461 c 3.358 0 5.621 -0.923 6.724 -2.742 c 0.295 -0.487 0.488 -1.008 0.604 -1.541 c 1.339 -0.411 7.732 -2.181 12.243 0.058 c 0.064 0.033 0.134 0.05 0.204 0.05 c 0.17 0 0.332 -0.094 0.414 -0.257 c 0.112 -0.229 0.02 -0.504 -0.21 -0.616 c -4.506 -2.239 -10.499 -0.823 -12.517 -0.238 c 0.105 -1.928 -0.577 -3.856 -0.998 -4.843 c 4.643 -0.167 9.224 -1.885 9.627 -2.042 c 0.367 -0.115 9.647 -3.029 14.66 -0.152 c 1.56 0.895 2.554 2.285 2.954 4.131 c 0.238 1.099 0.288 2.124 0.155 3.07 c -0.003 0.017 -0.006 0.033 -0.007 0.052 c -0.19 1.286 -0.726 2.431 -1.605 3.412 c -5.69 6.362 -23.752 4.594 -23.933 4.576 c -0.252 -0.027 -0.479 0.156 -0.505 0.411 c -0.026 0.252 0.159 0.479 0.412 0.504 c 0.205 0.021 1.641 0.163 3.75 0.229 c -0.422 0.371 -0.917 0.764 -1.477 1.142 c -0.001 0.001 -0.005 0.004 -0.009 0.005 c -1.606 1.083 -3.747 2.047 -6.286 2.057 h -0.039 c -3.434 0 -6.917 -1.741 -10.351 -5.175 c -6.492 -6.492 -5.692 -11.565 -3.879 -14.676 c 1.502 -2.567 3.774 -4.009 3.796 -4.024 c 0.216 -0.134 0.283 -0.418 0.148 -0.635 c -0.135 -0.215 -0.418 -0.282 -0.634 -0.147 c -0.094 0.06 -2.13 1.346 -3.719 3.723 c -1.796 -2.803 -2.311 -5.276 -1.531 -7.356 c 1.256 -3.336 5.589 -5.078 8.5 -5.894 c -0.097 0.68 -0.064 1.352 0.105 2.014 c 1.256 4.917 9.438 7.365 9.785 7.468 c 0.044 0.011 0.086 0.019 0.131 0.019 c 0.199 0 0.384 -0.131 0.443 -0.332 c 0.07 -0.243 -0.071 -0.5 -0.314 -0.572 c -0.081 -0.024 -8.023 -2.397 -9.152 -6.812 c -0.476 -1.864 0.358 -3.886 2.477 -6.004 c 2.606 -2.605 5.314 -3.835 8.051 -3.655 c 4.444 0.293 7.526 4.254 7.557 4.293 c 0.153 0.203 0.442 0.241 0.645 0.086 c 0.203 -0.155 0.242 -0.442 0.087 -0.645 c -0.079 -0.105 -1.23 -1.588 -3.157 -2.857 c 10.749 -7.33 18.946 -0.464 23.141 4.788 c -2.818 0.841 -5.107 3.225 -6.361 5.292 c -0.006 0.011 -0.014 0.024 -0.021 0.035 c -6.616 -1.637 -7.271 -5.189 -7.277 -5.244 c -0.039 -0.25 -0.27 -0.424 -0.522 -0.389 c -0.251 0.037 -0.428 0.27 -0.391 0.521 c 0.023 0.172 0.665 4.12 7.735 5.947 c -0.378 0.778 -0.741 1.787 -0.531 2.499 c 0.072 0.246 0.328 0.384 0.571 0.312 c 0.245 -0.072 0.384 -0.328 0.313 -0.571 c -0.106 -0.365 0.132 -1.344 0.913 -2.629 c 1.198 -1.978 3.609 -4.483 6.461 -5.044 C 277.844 243.65 281.355 246.418 284.255 252.385 z" stroke-linecap="round" />
</g>
<g transform="matrix(0.36 0 0 0.07 249.49999999999997 249.99999999999997)"  >
<rect style="stroke: none; stroke-width: 1; stroke-dasharray: none; stroke-linecap: butt; stroke-dashoffset: 0; stroke-linejoin: miter; stroke-miterlimit: 4; fill: rgb(255,255,255); fill-rule: evenodd; opacity: 1;"  x="-393.5" y="-393.5" rx="0" ry="0" width="787" height="787" />
</g>
<g transform="matrix(1,0,0,1,251.51999999999998,250.587)" style=""  ><path fill="#4C4C4C" opacity="1" d="M-103.18-1.40L-103.18-1.40Q-102.24-0.35-101.76 0.94Q-101.27 2.23-101.27 3.63L-101.27 3.63Q-101.27 5.21-101.87 6.59Q-102.46 7.97-103.50 9.02Q-104.54 10.06-105.92 10.65Q-107.31 11.24-108.88 11.24L-108.88 11.24L-122.35 11.24L-122.35-13.82L-108.88-13.82Q-107.27-13.82-105.87-13.22Q-104.47-12.63-103.43-11.52L-103.43-11.52Q-102.49-10.48-101.97-9.11Q-101.45-7.75-101.45-6.21L-101.45-6.21Q-101.45-3.44-103.18-1.40ZM-116.64-7.79L-116.64-4.48Q-116.64-4.16-116.28-4.16L-116.28-4.16L-109.10-4.16Q-108.35-4.16-107.77-4.75Q-107.20-5.34-107.20-6.17L-107.20-6.17Q-107.16-7.00-107.74-7.55Q-108.31-8.11-109.10-8.11L-109.10-8.11L-116.28-8.11Q-116.64-8.11-116.64-7.79L-116.64-7.79ZM-116.64 1.91L-116.64 5.21Q-116.64 5.53-116.28 5.53L-116.28 5.53L-108.92 5.53Q-108.13 5.53-107.56 4.98Q-106.98 4.42-106.98 3.60L-106.98 3.60Q-107.02 2.77-107.57 2.18Q-108.13 1.58-108.88 1.58L-108.88 1.58L-116.28 1.58Q-116.64 1.58-116.64 1.91L-116.64 1.91Z"/><path fill="#4C4C4C" opacity="1" d="M-77.80-13.85L-72.05-13.85L-72.05-1.29Q-72.05 0.97-72.23 3.09Q-72.41 5.21-73.45 7.04L-73.45 7.04Q-74.71 9.27-77.19 10.34L-77.19 10.34Q-78.33 10.85-79.75 11.10Q-81.17 11.35-82.96 11.35L-82.96 11.35Q-84.72 11.35-86.16 11.10Q-87.60 10.85-88.74 10.34L-88.74 10.34Q-91.15 9.30-92.48 7.04L-92.48 7.04Q-92.98 6.14-93.27 5.14Q-93.56 4.13-93.68 3.09Q-93.81 2.05-93.82 0.96Q-93.84-0.14-93.84-1.29L-93.84-1.29L-93.84-13.85L-88.10-13.85L-88.10-1.29Q-88.10 0.44-88.03 1.91Q-87.96 3.38-87.49 4.21L-87.49 4.21Q-87.42 4.31-87.22 4.55Q-87.02 4.78-86.54 5.01Q-86.05 5.25-85.21 5.43Q-84.37 5.61-82.96 5.61L-82.96 5.61Q-81.56 5.61-80.70 5.43Q-79.84 5.25-79.36 5.01Q-78.87 4.78-78.69 4.55Q-78.51 4.31-78.44 4.21L-78.44 4.21Q-77.97 3.38-77.89 1.89Q-77.80 0.40-77.80-1.29L-77.80-1.29L-77.80-13.85Z"/><path fill="#4C4C4C" opacity="1" d="M-47.46-2.51L-47.46-2.51Q-45.74-1.36-44.82 0.20Q-43.91 1.76-43.91 3.60L-43.91 3.60Q-43.91 5.43-44.82 6.99Q-45.74 8.55-47.46 9.70L-47.46 9.70Q-48.82 10.63-50.58 11.12Q-52.34 11.60-54.24 11.60L-54.24 11.60Q-56.15 11.60-57.89 11.12Q-59.63 10.63-61.03 9.70L-61.03 9.70Q-61.96 9.09-62.72 8.26L-62.72 8.26L-63.29 7.58L-61.42 1.87L-59.85 3.38Q-59.49 3.74-59.25 3.90Q-59.02 4.06-58.45 4.46L-58.45 4.46L-58.19 4.60Q-57.48 5.10-56.42 5.39Q-55.36 5.68-54.24 5.68L-54.24 5.68Q-53.10 5.68-52.06 5.39Q-51.01 5.10-50.26 4.60L-50.26 4.60Q-49.69 4.21-49.69 3.58Q-49.69 2.95-50.26 2.55L-50.26 2.55Q-51.01 2.05-52.06 1.78Q-53.10 1.51-54.24 1.51L-54.24 1.51Q-56.15 1.51-57.89 1.03Q-59.63 0.54-61.03-0.39L-61.03-0.39Q-62.75-1.54-63.65-3.10Q-64.55-4.66-64.55-6.49L-64.55-6.49Q-64.55-8.32-63.65-9.89Q-62.75-11.45-61.03-12.60L-61.03-12.60Q-59.63-13.53-57.89-14.01Q-56.15-14.50-54.24-14.50L-54.24-14.50Q-52.34-14.50-50.58-14.01Q-48.82-13.53-47.46-12.60L-47.46-12.60Q-46.96-12.27-46.56-11.93Q-46.17-11.59-45.77-11.20L-45.77-11.20L-45.20-10.55L-47.06-4.66L-48.68-6.31Q-48.97-6.60-49.17-6.76Q-49.36-6.92-49.83-7.21L-49.83-7.21Q-49.90-7.28-50.03-7.35Q-50.15-7.43-50.30-7.50L-50.30-7.50Q-51.01-8.00-52.06-8.29Q-53.10-8.58-54.24-8.58L-54.24-8.58Q-55.36-8.58-56.42-8.29Q-57.48-8.00-58.19-7.50L-58.19-7.50Q-58.77-7.10-58.77-6.47Q-58.77-5.85-58.19-5.45L-58.19-5.45Q-57.48-4.95-56.42-4.68Q-55.36-4.41-54.24-4.41L-54.24-4.41Q-52.34-4.41-50.58-3.93Q-48.82-3.44-47.46-2.51Z"/><path fill="#4C4C4C" opacity="1" d="M-19.53-2.51L-19.53-2.51Q-17.81-1.36-16.89 0.20Q-15.98 1.76-15.98 3.60L-15.98 3.60Q-15.98 5.43-16.89 6.99Q-17.81 8.55-19.53 9.70L-19.53 9.70Q-20.89 10.63-22.65 11.12Q-24.41 11.60-26.31 11.60L-26.31 11.60Q-28.22 11.60-29.96 11.12Q-31.70 10.63-33.10 9.70L-33.10 9.70Q-34.03 9.09-34.79 8.26L-34.79 8.26L-35.36 7.58L-33.49 1.87L-31.92 3.38Q-31.56 3.74-31.32 3.90Q-31.09 4.06-30.52 4.46L-30.52 4.46L-30.26 4.60Q-29.55 5.10-28.49 5.39Q-27.43 5.68-26.31 5.68L-26.31 5.68Q-25.17 5.68-24.12 5.39Q-23.08 5.10-22.33 4.60L-22.33 4.60Q-21.76 4.21-21.76 3.58Q-21.76 2.95-22.33 2.55L-22.33 2.55Q-23.08 2.05-24.12 1.78Q-25.17 1.51-26.31 1.51L-26.31 1.51Q-28.22 1.51-29.96 1.03Q-31.70 0.54-33.10-0.39L-33.10-0.39Q-34.82-1.54-35.72-3.10Q-36.62-4.66-36.62-6.49L-36.62-6.49Q-36.62-8.32-35.72-9.89Q-34.82-11.45-33.10-12.60L-33.10-12.60Q-31.70-13.53-29.96-14.01Q-28.22-14.50-26.31-14.50L-26.31-14.50Q-24.41-14.50-22.65-14.01Q-20.89-13.53-19.53-12.60L-19.53-12.60Q-19.03-12.27-18.63-11.93Q-18.24-11.59-17.84-11.20L-17.84-11.20L-17.27-10.55L-19.13-4.66L-20.75-6.31Q-21.04-6.60-21.23-6.76Q-21.43-6.92-21.90-7.21L-21.90-7.21Q-21.97-7.28-22.10-7.35Q-22.22-7.43-22.37-7.50L-22.37-7.50Q-23.08-8.00-24.12-8.29Q-25.17-8.58-26.31-8.58L-26.31-8.58Q-27.43-8.58-28.49-8.29Q-29.55-8.00-30.26-7.50L-30.26-7.50Q-30.84-7.10-30.84-6.47Q-30.84-5.85-30.26-5.45L-30.26-5.45Q-29.55-4.95-28.49-4.68Q-27.43-4.41-26.31-4.41L-26.31-4.41Q-24.41-4.41-22.65-3.93Q-20.89-3.44-19.53-2.51Z"/><path fill="#4C4C4C" opacity="1" d="M5.71-13.85L11.45-13.85L11.45 11.31L5.71 11.31L5.71 4.85Q5.71 4.49 5.35 4.49L5.35 4.49L-2.26 4.49Q-2.58 4.49-2.58 4.85L-2.58 4.85L-2.58 11.31L-8.33 11.31L-8.33-13.85L-2.58-13.85L-2.58-1.61Q-2.58-1.25-2.26-1.25L-2.26-1.25L5.35-1.25Q5.71-1.25 5.71-1.61L5.71-1.61L5.71-13.85Z"/><path fill="#4C4C4C" opacity="1" d="M21.18-13.85L21.18-13.85L26.92-13.85L26.92 11.31L21.18 11.31L21.18-13.85Z"/><path fill="#4C4C4C" opacity="1" d="M55.29-11.12L55.29-11.12Q59.13-7.89 59.13-1.25L59.13-1.25Q59.13 5.57 55.25 8.80L55.25 8.80Q52.16 11.31 46.53 11.31L46.53 11.31L35.72 11.31L35.72-13.89L46.53-13.89Q52.02-13.89 55.29-11.12ZM41.75 5.57L46.53 5.57Q48.46 5.57 49.78 5.23Q51.09 4.89 51.89 4.08Q52.70 3.27 53.04 1.96Q53.38 0.65 53.38-1.25L53.38-1.25Q53.38-5.16 51.55-6.74L51.55-6.74Q49.90-8.11 46.53-8.11L46.53-8.11L41.75-8.11Q41.46-8.11 41.46-7.82L41.46-7.82L41.46 5.28Q41.46 5.57 41.75 5.57L41.75 5.57Z"/><path fill="#4C4C4C" opacity="1" d="M87.45-8.04L73.02-8.04Q72.73-8.04 72.73-7.75L72.73-7.75L72.73-2.97Q72.73-2.65 73.02-2.65L73.02-2.65L84.69-2.65L84.69 3.06L73.02 3.06Q72.73 3.06 72.73 3.38L72.73 3.38L72.73 5.25Q72.73 5.53 73.02 5.53L73.02 5.53L87.45 5.53L87.45 11.28L66.99 11.28L66.99-13.85L87.45-13.85L87.45-8.04Z"/><path fill="#4C4C4C" opacity="1" d="M112.26-13.85L118.40-13.85L109.28 11.31L104.25 11.31L95.14-13.85L101.27-13.85L106.48 0.62Q106.55 0.79 106.77 0.79Q106.98 0.79 107.05 0.62L107.05 0.62L112.26-13.85Z"/></g></svg>